<svg xmlns="http://www.w3.org/2000/svg" xmlns:xlink="http://www.w3.org/1999/xlink" width="100" zoomAndPan="magnify" viewBox="0 0 75 74.999997" height="100" preserveAspectRatio="xMidYMid meet" version="1.0"><path fill="#ffffff" d="M 69.414062 24.78125 C 69.546875 24.789062 69.515625 24.800781 69.527344 24.714844 C 69.394531 24.707031 69.429688 24.691406 69.414062 24.78125 Z M 50.453125 47.605469 L 50.53125 47.652344 L 50.550781 47.589844 Z M 44.183594 47.664062 C 44.21875 47.660156 44.253906 47.65625 44.289062 47.65625 C 44.164062 47.542969 44.210938 47.566406 44.101562 47.605469 C 44.128906 47.625 44.15625 47.644531 44.183594 47.664062 Z M 32.445312 48.046875 C 32.386719 48.070312 32.335938 48.101562 32.28125 48.128906 C 32.402344 48.171875 32.328125 48.195312 32.550781 48.078125 C 32.515625 48.066406 32.480469 48.054688 32.445312 48.046875 Z M 48.871094 47.660156 C 48.40625 47.597656 47.96875 47.480469 47.316406 47.660156 C 47.992188 47.660156 48.429688 47.660156 48.871094 47.660156 Z M 39.324219 25.25 C 39.308594 25.246094 39.292969 25.238281 39.277344 25.234375 C 38.6875 25.234375 38.089844 25.234375 37.5 25.234375 C 37.5 25.238281 37.5 25.246094 37.5 25.25 C 38.105469 25.25 38.714844 25.25 39.324219 25.25 Z M 24.949219 50.152344 C 24.8125 50.234375 24.578125 50.347656 24.375 50.507812 C 24.324219 50.546875 24.347656 50.808594 24.382812 50.820312 C 25.246094 51.078125 25.289062 50.960938 25.550781 50.738281 C 25.683594 50.625 25.59375 50.28125 25.429688 50.238281 C 25.316406 50.210938 25.199219 50.199219 24.949219 50.152344 Z M 49.863281 48.367188 C 49.863281 48.359375 49.863281 48.347656 49.863281 48.339844 C 49.039062 48.339844 48.214844 48.339844 47.394531 48.339844 C 47.394531 48.347656 47.394531 48.359375 47.394531 48.367188 C 48.214844 48.367188 49.039062 48.367188 49.863281 48.367188 Z M 29.796875 27.46875 C 29.761719 27.398438 29.707031 27.21875 29.644531 27.21875 C 29.378906 27.203125 29.09375 27.195312 28.847656 27.277344 C 28.644531 27.34375 28.65625 27.777344 28.835938 27.910156 C 29.15625 28.140625 29.722656 27.910156 29.796875 27.46875 Z M 48.707031 27.5625 C 49.171875 27.5625 49.441406 27.34375 49.484375 27.007812 C 49.5625 26.433594 48.285156 26.425781 48.425781 27.179688 C 48.457031 27.335938 48.632812 27.46875 48.707031 27.5625 Z M 68.449219 25.273438 C 68.464844 25.261719 68.484375 25.25 68.496094 25.242188 C 68.347656 25.207031 68.867188 25.214844 64.902344 25.214844 C 64.902344 25.234375 64.902344 25.25 64.902344 25.273438 C 66.082031 25.273438 67.265625 25.273438 68.449219 25.273438 Z M 43.929688 49.679688 C 43.378906 49.675781 43.160156 49.78125 43.082031 50.125 C 43.042969 50.292969 43.078125 50.542969 43.1875 50.660156 C 43.628906 51.121094 44.644531 50.417969 44.320312 49.921875 C 44.226562 49.785156 44.007812 49.726562 43.929688 49.679688 Z M 52.378906 25.441406 C 52.371094 25.464844 52.367188 25.484375 52.363281 25.507812 C 54.640625 25.507812 56.917969 25.507812 59.195312 25.507812 C 59.195312 25.484375 59.195312 25.464844 59.195312 25.441406 C 56.921875 25.441406 54.652344 25.441406 52.378906 25.441406 Z M 54.621094 48.527344 C 57.980469 48.734375 62.140625 48.734375 63.402344 48.527344 C 60.363281 48.527344 57.492188 48.527344 54.621094 48.527344 Z M 27.617188 50.1875 C 27.328125 50.972656 28.003906 51.089844 28.851562 51.085938 C 28.890625 51.085938 35.265625 50.984375 35.3125 50.980469 C 35.976562 50.96875 36.09375 50.839844 36.328125 49.878906 C 33.382812 49.894531 30.484375 49.996094 27.617188 50.1875 Z M 41.910156 26.886719 C 40.894531 26.789062 42.859375 26.753906 32.058594 27.042969 C 31.898438 27.046875 31.71875 27.039062 31.582031 27.113281 C 31.261719 27.277344 31.195312 27.589844 31.503906 27.855469 C 31.738281 28.050781 31.367188 28.109375 40.59375 27.847656 C 41.445312 27.820312 42.171875 27.691406 41.910156 26.886719 Z M 48.835938 29.054688 C 47.695312 28.839844 48.015625 28.628906 45.089844 41.523438 C 45.003906 41.914062 44.867188 42.296875 44.976562 42.699219 C 45.96875 42.804688 45.996094 42.792969 46.230469 42.148438 C 46.460938 41.527344 48.8125 30.59375 48.875 30.316406 C 48.960938 29.921875 49.101562 29.523438 48.835938 29.054688 Z M 26.824219 44.234375 C 27.394531 41.882812 29.378906 30.152344 29.367188 29.808594 C 29.34375 29.132812 28.546875 29.148438 28.324219 29.546875 C 28.09375 29.960938 25.796875 42.746094 25.625 43.867188 C 25.605469 43.96875 25.683594 44.089844 25.730469 44.234375 C 26.058594 44.234375 26.371094 44.234375 26.824219 44.234375 Z M 41.324219 29.351562 C 40.789062 29.136719 40.652344 29.011719 40.152344 29.078125 C 38.15625 29.355469 36.152344 29.171875 34.152344 29.175781 C 31.488281 29.179688 31.003906 28.855469 30.78125 30.25 C 30.773438 30.296875 29.429688 40.023438 28.84375 42.574219 C 28.734375 43.070312 28.675781 43.539062 29.082031 44.019531 C 31.96875 43.714844 34.878906 43.402344 37.914062 43.082031 C 38.734375 38.441406 40.3125 34.027344 41.324219 29.351562 Z M 49.917969 20.828125 C 50.789062 20.957031 50.828125 20.960938 50.964844 20.460938 C 51.644531 17.941406 53.710938 6.910156 53.9375 6.246094 C 54.316406 6.339844 54.257812 6.578125 54.25 6.761719 C 54.152344 8.597656 54 10.421875 53.582031 12.226562 C 53.167969 13.996094 52.835938 17.1875 52.382812 19.351562 C 52.277344 19.839844 52.1875 20.3125 52.351562 20.855469 C 53.355469 21.140625 53.644531 20.976562 62.847656 20.933594 C 70.332031 20.898438 71.160156 21.152344 71.777344 23.339844 C 72.035156 24.257812 72.046875 25.097656 71.65625 25.949219 C 71.445312 26.410156 71.242188 26.550781 70.800781 26.4375 C 69.46875 26.082031 68.113281 26.191406 66.769531 26.203125 C 64.101562 26.230469 51.851562 26.492188 51.421875 26.574219 C 50.816406 26.695312 50.671875 27.554688 51.484375 27.550781 C 71.8125 27.371094 71.453125 26.242188 71.644531 28.511719 C 66.773438 28.167969 59.902344 28.898438 56.171875 28.601562 C 55.910156 28.578125 57.234375 28.5625 51.425781 28.945312 C 50.65625 28.992188 50.503906 29.085938 50.335938 29.839844 C 50.328125 29.882812 47.816406 42.296875 47.808594 42.339844 C 47.742188 42.738281 47.949219 43.003906 48.320312 42.988281 C 52.753906 42.804688 65.085938 43.449219 65.035156 43.851562 C 64.964844 44.421875 65.882812 44.375 65.695312 45.050781 C 65.386719 45.457031 64.824219 45.191406 64.195312 45.441406 C 64.8125 45.492188 65.257812 45.523438 65.894531 45.578125 C 65.433594 45.804688 65.152344 45.941406 64.777344 46.128906 C 65.25 46.128906 65.628906 46.128906 65.984375 46.128906 C 66.46875 47.203125 66.453125 47.285156 65.699219 47.859375 C 65.800781 47.910156 65.90625 47.964844 66.007812 48.011719 C 65.726562 49.3125 65.476562 49.597656 64.210938 49.65625 C 61.078125 49.796875 46.914062 49.605469 46.53125 49.699219 C 46.375 49.738281 46.191406 49.929688 46.140625 50.085938 C 45.855469 51.039062 47.246094 50.671875 49.480469 50.867188 C 50.460938 50.949219 51.421875 50.914062 52.398438 50.8125 C 53.113281 50.738281 53.855469 50.941406 54.585938 50.933594 C 56.847656 50.914062 63.515625 50.875 65.582031 50.660156 C 66.316406 51.359375 65.785156 52.273438 64.890625 52.289062 C 63.421875 52.3125 61.96875 52.558594 60.492188 52.410156 C 59.550781 52.3125 55.644531 52.445312 55.367188 52.464844 C 55.160156 52.480469 54.9375 52.617188 54.765625 52.5625 C 53.605469 52.199219 52.425781 52.753906 51.253906 52.457031 C 50.839844 52.351562 50.367188 52.503906 49.917969 52.511719 C 46.378906 52.550781 46.089844 52.371094 45.378906 52.894531 C 44.972656 54.738281 44.324219 56.59375 44.109375 58.550781 C 44.089844 58.757812 44.078125 58.964844 44.011719 59.160156 C 43.339844 61.140625 43.90625 59.980469 41.578125 69.398438 C 41.539062 69.554688 41.488281 69.71875 41.492188 69.878906 C 41.550781 71.222656 40.945312 72.425781 40.65625 73.691406 C 40.578125 74.027344 40.335938 74.320312 40.128906 74.703125 C 39.773438 74.566406 39.492188 74.457031 39.207031 74.351562 C 40.070312 71.4375 40.207031 69.984375 41.429688 63.988281 C 43.988281 51.421875 43.160156 56.246094 43.652344 52.726562 C 42.6875 52.460938 42.578125 52.488281 42.410156 53.207031 C 41.734375 56.121094 39.757812 66.035156 39.175781 68.953125 C 38.65625 71.554688 38.6875 72.566406 37.902344 74.296875 C 37.710938 74.726562 37.417969 74.660156 36.976562 74.078125 C 36.761719 74.289062 36.554688 74.496094 36.34375 74.703125 C 36.203125 74.554688 36.105469 74.445312 35.980469 74.316406 C 35.105469 74.964844 34.980469 75.03125 34.703125 74.382812 C 34.546875 74.015625 34.136719 74.277344 34.066406 73.949219 C 33.472656 74.007812 33.105469 73.644531 32.710938 73.1875 C 32.777344 72.710938 32.871094 72.191406 32.925781 71.667969 C 33.367188 67.441406 34.113281 63.257812 34.757812 59.0625 C 35.570312 53.769531 36.203125 53.140625 35.613281 52.457031 C 30.070312 52.457031 30.175781 52.617188 29.058594 52.40625 C 28.3125 52.265625 27.402344 52.550781 27.113281 52.617188 C 26.675781 53.316406 26.773438 54.132812 26.570312 54.867188 C 26.21875 56.121094 24.570312 63.039062 24.277344 65.019531 C 24.070312 66.40625 23.414062 67.648438 22.933594 68.949219 C 22.410156 69.136719 22.015625 68.941406 21.671875 68.636719 C 21.363281 68.363281 21.394531 67.980469 21.464844 67.523438 C 22.867188 66.824219 22.160156 65.582031 24.148438 58.722656 C 24.207031 58.515625 25.121094 52.988281 25.128906 52.941406 C 25.140625 52.875 25.074219 52.792969 25.007812 52.617188 C 24.714844 52.582031 24.375 52.539062 24.089844 52.503906 C 23.769531 52.882812 24.019531 52.144531 23.105469 56.242188 C 20.375 68.507812 20.558594 67.65625 20.527344 67.734375 C 20.199219 68.628906 20.363281 68.984375 18.816406 68.953125 C 18.648438 68.949219 18.046875 69.273438 17.964844 69.167969 C 17.746094 68.886719 17.539062 68.917969 17.226562 69.03125 C 16.773438 69.1875 16.320312 69.160156 16.175781 68.550781 L 15.085938 68.101562 C 14.589844 68.050781 13.96875 67.417969 14.015625 66.917969 C 14.34375 63.269531 15.015625 61.210938 15.042969 61.03125 C 16.496094 51.972656 16.148438 55.636719 16.566406 52.320312 C 15.878906 51.648438 11.527344 51.753906 6.371094 50.550781 C 6.125 50.496094 5.914062 50.296875 5.589844 50.105469 C 5.820312 49.992188 5.925781 49.890625 6.011719 49.902344 C 7.695312 50.179688 9.425781 50.183594 11.066406 50.722656 C 11.339844 50.8125 12.078125 50.609375 12.390625 50.6875 C 13.589844 51 14.824219 50.605469 16.03125 50.898438 C 16.417969 50.992188 16.824219 50.863281 17.035156 50.28125 C 16.605469 50.234375 16.261719 50.179688 15.910156 50.164062 C 8.269531 49.84375 5.695312 49.273438 5.519531 49.253906 C 4.933594 49.183594 4.363281 49.105469 4.148438 48.425781 C 3.382812 48.164062 3.402344 47.429688 3.234375 46.835938 C 3.011719 46.035156 3.605469 45.78125 4.445312 45.75 C 13.472656 45.394531 9.429688 45.613281 17.8125 45.054688 C 18.59375 44.277344 18.027344 44 19.941406 36.304688 C 21.824219 28.75 21.304688 31.382812 21.566406 29.351562 C 21.335938 28.917969 20.988281 28.976562 20.667969 28.96875 C 9.0625 28.636719 19.316406 28.878906 10.644531 28.554688 C 10.46875 28.550781 10.292969 28.476562 9.996094 28.402344 C 10.398438 28.015625 10.773438 28.046875 11.117188 28.039062 C 22.621094 27.832031 20.328125 27.980469 21.402344 27.988281 C 21.714844 27.988281 21.957031 27.851562 21.9375 27.371094 C 21.285156 27.253906 22.117188 27.230469 17.496094 27.273438 C 9.039062 27.351562 10.042969 27.300781 6.820312 27.957031 C 6.070312 27.65625 5.683594 27.042969 5.628906 26.191406 C 5.601562 25.835938 5.6875 25.539062 6.015625 25.359375 C 7.269531 24.6875 6.40625 24.789062 11.613281 23.679688 C 13.46875 23.285156 13.039062 23.484375 23.316406 22.316406 C 23.433594 22.09375 23.714844 21.785156 23.738281 21.457031 C 23.824219 20.414062 27.492188 7.53125 30.300781 1.476562 C 30.632812 0.761719 31.40625 0.0234375 32.183594 0.1875 C 33.222656 0.40625 34.167969 1.785156 33.898438 2.546875 C 33.320312 4.183594 29.949219 20.792969 29.820312 21.601562 C 30.601562 21.910156 30.867188 21.8125 31.003906 21.140625 C 32.035156 16.097656 33.859375 4.5625 34.539062 3.109375 C 34.679688 3.296875 34.804688 3.386719 34.808594 3.480469 C 34.921875 5.425781 32.570312 17.398438 32.308594 21.484375 C 33.207031 21.71875 32.339844 21.734375 35.347656 21.46875 C 36.265625 21.386719 42.898438 21.160156 42.941406 21.160156 C 43.535156 21.195312 43.847656 20.863281 44.019531 20.351562 C 44.359375 19.363281 46.695312 11.070312 48.386719 7.894531 C 49.730469 5.375 50.28125 2.984375 51.839844 3.261719 C 52.824219 3.4375 53.628906 4.597656 53.332031 5.804688 C 53.152344 6.546875 50.007812 20.109375 49.996094 20.152344 C 49.953125 20.347656 49.949219 20.554688 49.917969 20.828125 " fill-opacity="1" fill-rule="nonzero"/><path fill="#ffffff" d="M 9.289062 28.476562 C 9.082031 28.660156 9.472656 28.578125 7.511719 28.828125 C 7.78125 28.128906 8.371094 28.394531 8.75 28.222656 C 8.960938 28.132812 9.226562 28.097656 9.289062 28.476562 " fill-opacity="1" fill-rule="nonzero"/></svg>